<svg width="216" height="216" viewBox="0 0 216 216" fill="none" xmlns="http://www.w3.org/2000/svg">
<path d="M56.0184 132.195L27.4484 145.728L21.7288 122.162L47.9276 102.87L56.0184 132.195Z" fill="#EFEDD8"/>
<path d="M48.959 160.089C48.959 158.845 49.7054 157.722 50.8526 157.241L73.1862 147.871C75.2214 147.017 77.4695 148.512 77.4695 150.719V192.375C77.4695 194.081 76.0867 195.464 74.381 195.464H52.0474C50.3417 195.464 48.959 194.081 48.959 192.375V160.089Z" fill="#0B719B"/>
<path d="M52.9362 162.973C52.9362 161.755 53.6519 160.651 54.7638 160.154L73.2446 151.889C75.2877 150.976 77.5939 152.47 77.5939 154.709V195.475H52.9362V162.973Z" fill="#40B1E0"/>
<path d="M194.594 195.078C214.936 161.74 203.07 127.681 194.594 114.819L168.78 123.308C176.794 134.73 175.458 175.913 173.789 195.078H194.594Z" fill="#EFEDD8"/>
<path d="M9.66077 125.623C11.5101 116.363 32.7774 101.958 43.1799 95.9125L48.1884 106.331C46.5189 118.549 39.9435 143.373 26.9982 144.916C10.8166 146.846 7.34911 137.199 9.66077 125.623Z" fill="#EFEDD8"/>
<path d="M147.59 73.9186C139.884 75.1533 131.537 73.4041 128.326 72.3751C121.263 72.8896 106.673 74.8446 104.824 78.5489C102.975 82.2531 97.6323 81.6357 95.1922 80.864C80.1664 71.9893 67.8375 78.5489 62.4437 83.1791C58.1286 86.8834 46.7757 92.9542 41.6387 95.5266C35.4743 112.813 47.8032 130.768 54.7381 137.585C63.0601 136.35 79.7811 123.951 87.1014 117.906C87.7435 122.151 90.2607 133.726 95.1922 146.074C100.124 158.421 99.5587 183.116 98.6597 193.92H184.576C185.809 163.052 175.073 140.157 169.551 132.569C191.434 134.73 196.135 120.093 195.749 112.504C190.612 104.916 178.643 87.5007 171.862 78.5489C163.386 67.359 157.222 72.3751 147.59 73.9186Z" fill="#198AB9"/>
<path d="M102.898 93.2115C99.1991 86.1117 102.898 83.3078 105.209 82.7933C108.507 72.678 119.801 70.3973 130.147 70.9195C138.177 71.3248 143.634 79.0985 140.486 86.4979C136.855 95.0366 131.051 101.117 127.054 104.163C126.314 104.726 125.27 104.433 124.864 103.596L119.079 91.668L110.24 102.734C109.442 103.733 107.709 103.426 107.216 102.246C106.376 100.236 105.003 97.2532 102.898 93.2115Z" fill="#11729A"/>
<path d="M99.0451 70.8318L124.473 58.0985L133.72 77.3913L131.069 83.0796C126.765 92.3165 115.31 95.6351 106.751 90.1246L99.0451 70.8318Z" fill="#FBFAF1"/>
<path fill-rule="evenodd" clip-rule="evenodd" d="M103.969 83.1607L101.601 77.2304L101.481 76.6313L125.368 60.4254L126.067 61.4257L127.855 65.155C121.712 90.0168 110.166 86.4469 103.969 83.1607Z" fill="#EFEDD8"/>
<path d="M81.7075 19.8987C96.194 3.84703 112.658 13.2105 119.079 19.8987C129.867 21.7508 131.023 31.9889 130.252 36.8764L119.079 54.6258L68.9934 28.7734C74.2332 29.3908 79.0106 23.1142 81.7075 19.8987Z" fill="#09648A"/>
<path d="M107.906 80.864C88.1802 83.3335 76.3137 56.6837 72.8462 43.0501C76.3137 29.5451 109.447 32.6319 119.465 37.6481C127.478 41.661 128.454 53.7254 127.941 59.256C125.475 75.6164 113.557 80.4782 107.906 80.864Z" fill="#FBFAF1"/>
<path fill-rule="evenodd" clip-rule="evenodd" d="M96.925 66.9121L95.679 54.503L96.3896 54.4286L97.6357 66.8376C97.737 67.8458 98.3758 68.6539 99.2287 68.6943C100.188 68.7396 100.98 68.478 101.279 67.6836C101.366 67.4508 101.557 67.3002 101.746 67.2294C101.935 67.1586 102.177 67.1473 102.391 67.2668C102.921 67.563 103.783 67.7339 104.741 66.9506C104.895 66.8247 105.12 66.8502 105.244 67.0076C105.367 67.1649 105.342 67.3945 105.188 67.5204C103.966 68.5187 102.786 68.3189 102.048 67.9071C102.051 67.9089 102.049 67.9065 102.038 67.9061C102.026 67.9058 102.01 67.9079 101.992 67.9145C101.975 67.9211 101.961 67.93 101.953 67.9379C101.948 67.9423 101.946 67.9453 101.945 67.9463C101.473 69.2002 100.24 69.4726 99.1956 69.4232C97.86 69.3599 97.0473 68.13 96.925 66.9121Z" fill="#044C6A"/>
<path d="M130.638 36.8763C124.654 33.4517 122.162 38.1625 121.776 40.7349C124.242 44.4391 126.657 54.1113 127.556 58.4843C134.105 55.0116 136.032 39.9632 130.638 36.8763Z" fill="#FBFAF1"/>
<path d="M13.4193 124.772C17.4527 115.199 33.974 106.115 41.7305 102.77C47.2893 99.167 61.7423 90.2631 75.0834 83.4694C88.4246 76.6757 96.6724 80.6387 99.1286 83.4694C102.231 84.2414 107.273 86.1715 104.558 90.8035C101.843 95.4356 94.0869 90.8035 89.433 90.8035C85.7098 90.8035 86.5889 94.4063 87.4938 96.2077C103.29 95.6144 102.695 108.984 100.218 116.539C100.029 117.115 99.5777 117.56 99.0098 117.772C97.7359 118.247 96.3051 117.731 95.6281 116.552L95.5463 116.41C95.3524 116.072 95.2429 115.688 95.2967 115.302C95.5015 113.834 96.2706 111.85 95.2503 107.788C94.0869 103.156 86.7182 102.77 82.0643 105.086C77.4104 107.402 79.3495 115.508 84.3912 120.14C88.4246 123.846 86.0718 126.059 84.3912 126.702C77.0226 128.632 71.9808 119.754 67.7148 115.508C64.3019 112.111 60.0876 114.093 58.407 115.508C53.8824 121.684 42.1959 135.889 31.6471 143.301C18.461 152.565 8.37757 136.738 13.4193 124.772Z" fill="#FBFAF1"/>
<path fill-rule="evenodd" clip-rule="evenodd" d="M99.0456 83.1792C99.0456 85.8091 96.6003 87.6759 94.0566 87.4612C87.4294 86.9017 83.061 88.8402 81.5635 90.04L81.0807 89.4375C82.7608 88.0914 87.3361 86.1189 94.1216 86.6918C96.2935 86.8752 98.2735 85.2817 98.2735 83.1792H99.0456Z" fill="#044C6A"/>
<path fill-rule="evenodd" clip-rule="evenodd" d="M149.339 95.2053C148.203 84.4266 152.436 79.1967 155.523 77.8108L155.839 78.5152C153.154 79.7205 148.993 84.5567 150.107 95.1244C150.868 102.356 154.423 108.956 158.321 115.199C164.259 124.712 168.093 130.173 169.47 131.946C169.601 132.115 169.571 132.357 169.402 132.488C169.234 132.619 168.991 132.588 168.861 132.42C167.459 130.615 163.608 125.127 157.666 115.608C153.762 109.354 150.12 102.625 149.339 95.2053Z" fill="#0D6E97"/>
<path d="M100.586 123.308C100.586 127.783 96.9637 131.411 92.4952 131.411C88.0268 131.411 84.4044 127.783 84.4044 123.308C84.4044 118.833 88.0268 115.205 92.4952 115.205C96.9637 115.205 100.586 118.833 100.586 123.308Z" fill="#DAB75D"/>
<path d="M68.9934 137.587C68.9934 135.881 70.3761 134.498 72.0818 134.498H108.285C109.991 134.498 111.374 135.881 111.374 137.587V192.375C111.374 194.081 109.991 195.464 108.285 195.464H72.0818C70.3762 195.464 68.9934 194.081 68.9934 192.375V137.587Z" fill="#F1D386"/>
<path fill-rule="evenodd" clip-rule="evenodd" d="M41.7913 79.4424L26.2653 72.0702L26.928 70.6747L42.454 78.0469C42.8391 78.2297 43.0029 78.6903 42.8198 79.0757C42.6368 79.461 42.1763 79.6252 41.7913 79.4424Z" fill="#F1D386"/>
<path fill-rule="evenodd" clip-rule="evenodd" d="M66.4341 53.4815C66.0159 53.4 65.6107 53.6735 65.5292 54.0924L62.2422 70.9831L63.7568 71.2781L67.0439 54.3874C67.1254 53.9685 66.8524 53.5629 66.4341 53.4815Z" fill="#F1D386"/>
<path fill-rule="evenodd" clip-rule="evenodd" d="M50.613 72.7567L44.4744 56.6839L45.916 56.1331L52.0547 72.206C52.2069 72.6046 52.0076 73.051 51.6095 73.2031C51.2114 73.3552 50.7652 73.1553 50.613 72.7567Z" fill="#F1D386"/>
<path d="M162.147 124.535C163.314 127.236 164.647 130.407 166.469 132.569C139.499 155.334 155.552 180.672 162.23 195.464H197.291C201.786 193.02 209.542 183.734 210.775 163.052C212.008 142.37 199.089 133.598 191.126 131.026L193.337 117.427C193.639 115.568 193.005 113.563 191.293 112.777C186.961 110.787 183.421 113.382 183.421 115.977C179.953 110.961 172.505 113.405 171.862 117.52C168.769 114.749 165.934 114.69 163.663 115.649C160.717 116.894 160.879 121.599 162.147 124.535Z" fill="#F1D386"/>
<path fill-rule="evenodd" clip-rule="evenodd" d="M131.065 139.305C120.249 118.26 117.793 99.3156 117.923 92.4325L118.695 92.447C118.568 99.1975 120.992 118.016 131.752 138.952C142.581 160.023 143.997 184.382 143.352 193.946C143.337 194.159 143.153 194.32 142.94 194.305C142.728 194.291 142.567 194.107 142.581 193.894C143.22 184.423 141.811 160.215 131.065 139.305Z" fill="#0D6E97"/>
<path d="M110.075 176.014H115.186V194.782H110.075V176.014Z" fill="#52ADD2"/>
<path d="M122.001 174.847L124.027 177.149L113.249 186.378L111.223 184.075L122.001 174.847Z" fill="#52ADD2"/>
<path d="M74.3872 141.444C74.3872 141.018 74.7329 140.672 75.1593 140.672H81.3206C81.7471 140.672 82.0927 141.018 82.0927 141.444V194.691C82.0927 195.118 81.7471 195.464 81.3206 195.464H75.1593C74.7329 195.464 74.3872 195.118 74.3872 194.691V141.444Z" fill="#BEE9FA"/>
<path d="M86.7162 141.444C86.7162 141.018 87.0619 140.672 87.4883 140.672H93.6496C94.076 140.672 94.4217 141.018 94.4217 141.444V194.691C94.4217 195.118 94.076 195.464 93.6496 195.464H87.4883C87.0619 195.464 86.7162 195.118 86.7162 194.691V141.444Z" fill="#BEE9FA"/>
<path d="M99.0449 141.444C99.0449 141.018 99.3906 140.672 99.817 140.672H105.978C106.405 140.672 106.75 141.018 106.75 141.444V194.691C106.75 195.118 106.405 195.464 105.978 195.464H99.817C99.3906 195.464 99.0449 195.118 99.0449 194.691V141.444Z" fill="#BEE9FA"/>
<path d="M88.6425 90.5105C80.0123 84.3368 69.3787 89.996 65.1406 93.5973L69.7639 100.929C74.2325 94.0665 82.9002 95.543 87.07 97.2754C87.3395 97.3873 87.6403 97.401 87.915 97.3027C90.3185 96.4431 91.1245 93.4481 89.4771 91.4983L88.6425 90.5105Z" fill="#FBFAF1"/>
<path fill-rule="evenodd" clip-rule="evenodd" d="M75.3403 88.7623C71.1404 89.8384 67.4738 92.1213 65.3906 93.8915L64.8906 93.3032C67.0455 91.472 70.8147 89.1247 75.1487 88.0143C79.4896 86.9021 84.4325 87.0242 88.8671 90.1965L88.9063 90.2245L89.772 91.2492C91.5932 93.4048 90.7021 96.7158 88.045 97.6662C87.6744 97.7988 87.2745 97.7784 86.9219 97.6319C84.8785 96.7829 81.7316 95.9981 78.5612 96.2638C75.4029 96.5285 72.2417 97.8311 70.0874 101.139C69.9711 101.318 69.7319 101.369 69.5533 101.252C69.3746 101.136 69.3241 100.897 69.4404 100.718C71.7547 97.164 75.1617 95.7739 78.4968 95.4944C81.8198 95.2159 85.0917 96.0355 87.2181 96.9189C87.4045 96.9963 87.606 97.0032 87.785 96.9392C89.9347 96.1703 90.6557 93.4915 89.1822 91.7475L88.3789 90.7967C84.1932 87.8223 79.5203 87.6913 75.3403 88.7623Z" fill="#044C6A"/>
<path d="M121.149 169.189C121.149 174.843 116.572 179.426 110.927 179.426C105.282 179.426 100.705 174.843 100.705 169.189C100.705 163.535 105.282 158.952 110.927 158.952C116.572 158.952 121.149 163.535 121.149 169.189Z" fill="#08668D"/>
<path d="M128.815 172.601C128.815 176.842 125.192 180.279 120.723 180.279C116.254 180.279 112.631 176.842 112.631 172.601C112.631 168.361 116.254 164.923 120.723 164.923C125.192 164.923 128.815 168.361 128.815 172.601Z" fill="#11729A"/>
<path d="M89.9228 62.3546C89.9228 63.4202 89.0604 64.2839 87.9965 64.2839C86.9325 64.2839 86.0701 63.4202 86.0701 62.3546C86.0701 61.2891 86.9325 60.4254 87.9965 60.4254C89.0604 60.4254 89.9228 61.2891 89.9228 62.3546Z" fill="#198AB9"/>
<path d="M109.957 55.4092C109.957 56.4747 109.095 57.3385 108.031 57.3385C106.967 57.3385 106.104 56.4747 106.104 55.4092C106.104 54.3437 106.967 53.4799 108.031 53.4799C109.095 53.4799 109.957 54.3437 109.957 55.4092Z" fill="#198AB9"/>
<path fill-rule="evenodd" clip-rule="evenodd" d="M112.162 72.2644C110.366 73.2238 108.472 73.5447 107.26 73.5447V72.7726C108.36 72.7726 110.127 72.4762 111.798 71.5834C113.461 70.695 115.019 69.224 115.753 66.87L116.49 67.0999C115.684 69.6848 113.966 71.3007 112.162 72.2644Z" fill="#044C6A"/>
<path fill-rule="evenodd" clip-rule="evenodd" d="M127.063 40.4768C126.116 40.6934 125.342 41.4523 124.924 42.1114L124.272 41.6973C124.752 40.9415 125.673 40.0027 126.891 39.7241C128.154 39.4349 129.609 39.8832 131.061 41.6601L130.463 42.1486C129.141 40.5299 127.963 40.2708 127.063 40.4768Z" fill="#044C6A"/>
<path fill-rule="evenodd" clip-rule="evenodd" d="M128.107 43.0983C127.905 41.7156 127.57 40.8925 127.359 40.5748L128.001 40.1469C128.303 40.6009 128.662 41.5527 128.871 42.9868C129.082 44.433 129.146 46.3973 128.834 48.8975L128.067 48.8019C128.372 46.3631 128.307 44.4688 128.107 43.0983Z" fill="#044C6A"/>
<path opacity="0.5" fill-rule="evenodd" clip-rule="evenodd" d="M58.3293 195.861V158.433H59.1015V195.861H58.3293Z" fill="#044C6A"/>
<path opacity="0.5" fill-rule="evenodd" clip-rule="evenodd" d="M64.879 195.475L64.879 156.118L65.6511 156.118L65.6511 195.475L64.879 195.475Z" fill="#044C6A"/>
<path opacity="0.5" fill-rule="evenodd" clip-rule="evenodd" d="M52.9363 165.764H69.1179V166.536H52.9363V165.764Z" fill="#044C6A"/>
<path opacity="0.5" fill-rule="evenodd" clip-rule="evenodd" d="M52.9363 174.253H69.1179V175.025H52.9363V174.253Z" fill="#044C6A"/>
<path opacity="0.5" fill-rule="evenodd" clip-rule="evenodd" d="M52.9363 181.97H69.1179V182.742H52.9363V181.97Z" fill="#044C6A"/>
<path opacity="0.5" fill-rule="evenodd" clip-rule="evenodd" d="M52.9363 189.687H69.1179V190.459H52.9363V189.687Z" fill="#044C6A"/>
<path fill-rule="evenodd" clip-rule="evenodd" d="M177.107 135.426C172.49 135.378 168.414 134.306 166.059 133.323L166.356 132.61C168.624 133.557 172.601 134.607 177.115 134.654C181.626 134.702 186.646 133.748 191.031 130.72L191.47 131.355C186.917 134.5 181.727 135.475 177.107 135.426Z" fill="#1577A0"/>
<path d="M87.4694 119.517H89.8626C90.3633 119.517 90.793 119.592 91.152 119.743C91.5109 119.894 91.7868 120.117 91.9799 120.412C92.1729 120.708 92.2694 121.071 92.2694 121.503C92.2694 121.844 92.2091 122.139 92.0884 122.389C91.9678 122.64 91.7974 122.849 91.5772 123.018C91.3601 123.187 91.1037 123.32 90.8081 123.416L90.4191 123.615H88.3063L88.2973 122.634H89.8762C90.1325 122.634 90.3452 122.588 90.5141 122.498C90.683 122.408 90.8096 122.282 90.8941 122.122C90.9816 121.963 91.0253 121.78 91.0253 121.575C91.0253 121.355 90.9831 121.165 90.8986 121.005C90.8142 120.842 90.686 120.717 90.5141 120.63C90.3421 120.542 90.125 120.498 89.8626 120.498H88.7135V126.104H87.4694V119.517ZM91.1881 126.104L89.6635 123.154L90.98 123.149L92.5228 126.04V126.104H91.1881Z" fill="white"/>
<path d="M94.4636 122.15V127.986H93.2647V121.209H94.3731L94.4636 122.15ZM97.6078 123.606V123.701C97.6078 124.057 97.5656 124.388 97.4811 124.692C97.3997 124.994 97.2791 125.258 97.1192 125.484C96.9594 125.707 96.7603 125.882 96.522 126.009C96.2868 126.132 96.0153 126.194 95.7077 126.194C95.4061 126.194 95.1437 126.137 94.9205 126.022C94.6973 125.905 94.5088 125.739 94.355 125.525C94.2012 125.31 94.0775 125.062 93.984 124.778C93.8935 124.492 93.8257 124.179 93.7804 123.842V123.539C93.8257 123.18 93.8935 122.854 93.984 122.561C94.0775 122.266 94.2012 122.011 94.355 121.797C94.5088 121.58 94.6958 121.412 94.916 121.295C95.1392 121.177 95.4001 121.118 95.6987 121.118C96.0093 121.118 96.2823 121.177 96.5175 121.295C96.7558 121.412 96.9563 121.581 97.1192 121.801C97.2821 122.021 97.4042 122.284 97.4857 122.588C97.5671 122.893 97.6078 123.232 97.6078 123.606ZM96.4089 123.701V123.606C96.4089 123.389 96.3893 123.189 96.3501 123.005C96.3109 122.818 96.2506 122.655 96.1692 122.516C96.0877 122.374 95.9822 122.264 95.8525 122.186C95.7228 122.107 95.5659 122.068 95.382 122.068C95.198 122.068 95.0396 122.098 94.9069 122.159C94.7742 122.219 94.6657 122.305 94.5812 122.417C94.4968 122.528 94.4304 122.661 94.3821 122.815C94.3369 122.965 94.3067 123.133 94.2917 123.317V124.068C94.3188 124.291 94.3716 124.492 94.45 124.67C94.5284 124.848 94.643 124.989 94.7938 125.095C94.9477 125.2 95.1467 125.253 95.391 125.253C95.575 125.253 95.7318 125.212 95.8615 125.131C95.9912 125.05 96.0968 124.938 96.1782 124.796C96.2596 124.651 96.3184 124.486 96.3546 124.299C96.3908 124.112 96.4089 123.913 96.4089 123.701Z" fill="white"/>
<path d="M170.892 149.307H176.363C177.507 149.307 178.489 149.48 179.31 149.825C180.13 150.169 180.761 150.679 181.202 151.355C181.643 152.031 181.864 152.861 181.864 153.847C181.864 154.626 181.726 155.302 181.45 155.874C181.174 156.446 180.785 156.925 180.282 157.311C179.785 157.697 179.199 158.001 178.524 158.221L177.635 158.676H172.805L172.785 156.432H176.394C176.98 156.432 177.466 156.329 177.852 156.122C178.238 155.915 178.527 155.629 178.72 155.264C178.92 154.898 179.02 154.481 179.02 154.013C179.02 153.509 178.924 153.075 178.731 152.71C178.538 152.337 178.245 152.051 177.852 151.851C177.459 151.651 176.962 151.551 176.363 151.551H173.736V164.364H170.892V149.307ZM179.392 164.364L175.908 157.621L178.917 157.611L182.443 164.219V164.364H179.392Z" fill="#198AB9"/>
<path d="M186.879 155.326V168.665H184.139V153.175H186.672L186.879 155.326ZM194.066 158.656V158.873C194.066 159.686 193.969 160.441 193.776 161.137C193.59 161.827 193.315 162.43 192.949 162.947C192.584 163.457 192.129 163.857 191.584 164.146C191.046 164.429 190.426 164.57 189.723 164.57C189.033 164.57 188.434 164.439 187.924 164.177C187.413 163.909 186.983 163.529 186.631 163.04C186.279 162.551 185.997 161.982 185.783 161.334C185.576 160.679 185.421 159.965 185.318 159.193V158.5C185.421 157.68 185.576 156.936 185.783 156.267C185.997 155.591 186.279 155.009 186.631 154.519C186.983 154.023 187.41 153.64 187.913 153.371C188.423 153.103 189.02 152.968 189.702 152.968C190.412 152.968 191.036 153.103 191.574 153.371C192.118 153.64 192.577 154.026 192.949 154.53C193.321 155.033 193.601 155.633 193.787 156.329C193.973 157.025 194.066 157.801 194.066 158.656ZM191.326 158.873V158.656C191.326 158.159 191.281 157.701 191.191 157.28C191.102 156.853 190.964 156.481 190.778 156.163C190.591 155.839 190.35 155.588 190.054 155.409C189.757 155.229 189.399 155.14 188.978 155.14C188.558 155.14 188.196 155.209 187.893 155.346C187.589 155.484 187.341 155.681 187.148 155.936C186.955 156.191 186.803 156.494 186.693 156.846C186.59 157.191 186.521 157.573 186.486 157.994V159.71C186.548 160.22 186.669 160.679 186.848 161.086C187.027 161.492 187.289 161.816 187.634 162.058C187.986 162.299 188.441 162.42 188.999 162.42C189.42 162.42 189.778 162.326 190.074 162.14C190.371 161.954 190.612 161.699 190.798 161.375C190.984 161.044 191.119 160.665 191.202 160.238C191.284 159.81 191.326 159.355 191.326 158.873Z" fill="#198AB9"/>
<path d="M133.844 184.671H148.485V188.53H133.844V184.671Z" fill="#F1D386"/>
<path d="M131.533 188.53H146.173V192.389H131.533V188.53Z" fill="#DAB75D"/>
<path d="M133.844 192.388H148.485V196.247H133.844V192.388Z" fill="#EFEDD8"/>
<path d="M144.589 171.717H178.253V196.237H144.589V171.717Z" fill="#86C5DF"/>
<path d="M150.808 181.534H161.214V196.247H150.808V181.534Z" fill="#198AB9"/>
<path d="M160.39 152.366C160.87 151.882 161.652 151.882 162.132 152.366L181.982 172.385C182.75 173.159 182.201 174.476 181.111 174.476H141.411C140.321 174.476 139.773 173.159 140.54 172.385L160.39 152.366Z" fill="#055F85"/>
<path d="M130.762 111.358C130.762 112.637 129.727 113.674 128.45 113.674C127.174 113.674 126.139 112.637 126.139 111.358C126.139 110.08 127.174 109.043 128.45 109.043C129.727 109.043 130.762 110.08 130.762 111.358Z" fill="#40B1E0"/>
<path d="M140.779 138.369C140.779 139.647 139.744 140.684 138.468 140.684C137.191 140.684 136.156 139.647 136.156 138.369C136.156 137.09 137.191 136.053 138.468 136.053C139.744 136.053 140.779 137.09 140.779 138.369Z" fill="#40B1E0"/>
<path d="M80.6763 46.9204C76.3612 48.4638 72.9707 46.2773 71.8149 44.9911L66.421 34.9588L99.9401 31.872H113.04L121.13 44.9911C118.973 49.3127 114.837 43.1904 113.04 39.5891C111.498 45.1455 104.435 44.4766 101.096 43.4477C99.2466 47.4606 92.8767 46.1487 89.9229 44.9911C87.4571 48.078 82.7311 47.5635 80.6763 46.9204Z" fill="#EFEDD8"/>
<path d="M60.1321 35.7188C60.7485 29.8538 69.6356 27.873 74.002 27.6158H87.1014L109.447 25.3007L112.915 31.8602C112.299 42.6642 103.925 42.0211 99.8156 40.3491C95.1923 45.2881 90.6974 43.6932 89.0278 42.2784C85.3292 45.6739 81.0654 44.4649 79.3959 43.4359C78.4712 44.6707 76.1853 45.2366 75.1579 45.3652C65.526 46.9087 59.3615 43.0501 60.1321 35.7188Z" fill="#09648A"/>
<path fill-rule="evenodd" clip-rule="evenodd" d="M98.059 37.0838C98.1696 36.8455 98.3647 36.6664 98.6112 36.5429C99.2037 36.2462 99.7364 36.1199 100.157 36.3149C100.606 36.5234 100.732 36.9982 100.759 37.393C100.786 37.8075 100.717 38.2947 100.626 38.7543C100.579 38.9883 100.524 39.2242 100.469 39.4491C101.243 39.934 102.219 40.3579 103.292 40.5883C104.923 40.9383 106.746 40.8356 108.412 39.8569C110.075 38.8792 111.632 36.9965 112.671 33.6857L113.408 33.9169C112.328 37.3586 110.673 39.4235 108.803 40.5226C106.934 41.6207 104.904 41.724 103.13 41.3432C102.055 41.1124 101.062 40.7016 100.242 40.215L100.238 40.2202C97.4534 43.6067 94.3212 44.2443 91.8591 43.6793C90.914 43.4623 90.0728 43.0693 89.3943 42.5938C86.7614 45.2045 83.3325 45.2909 80.736 44.3408C80.0963 44.1067 79.5007 43.8077 78.9741 43.4633C76.4866 45.7222 73.384 46.1772 70.4452 45.8134C67.3355 45.4284 64.3651 44.1241 62.3795 43.0128L62.7566 42.3391C64.6947 43.4237 67.5664 44.6789 70.54 45.0471C73.2885 45.3874 76.0859 44.9677 78.337 42.9969C78.0565 42.7666 77.8053 42.5226 77.5892 42.2695C76.8704 41.4274 76.488 40.4126 76.847 39.4537C77.0922 38.7989 77.4492 38.3642 77.9366 38.2195C78.4162 38.0771 78.8862 38.2571 79.2618 38.5022C80.0527 39.0183 80.3981 39.8543 80.3919 40.6972C80.3862 41.4784 80.0813 42.2837 79.5361 42.906C79.9745 43.1786 80.468 43.4205 81.0014 43.6157C83.3723 44.4833 86.4275 44.395 88.787 42.108C88.0891 41.4686 87.6103 40.6962 87.6103 39.975C87.6103 39.2373 88.0071 38.7297 88.5334 38.492C89.037 38.2646 89.6527 38.2855 90.1342 38.5493C90.6399 38.8264 90.9829 39.3658 90.9015 40.0969C90.8392 40.6569 90.5321 41.3002 89.9245 42.0214C90.5063 42.4131 91.2242 42.7414 92.0318 42.9267C94.1778 43.4193 96.9927 42.9101 99.5867 39.7963C99.5876 39.7928 99.5884 39.7894 99.5893 39.7859C99.3314 39.598 99.0992 39.4041 98.8969 39.2091C98.4424 38.7709 98.0984 38.2881 97.9947 37.8189C97.9411 37.5761 97.9488 37.321 98.059 37.0838ZM99.79 38.9673C99.8176 38.8463 99.8441 38.7245 99.8683 38.6031C99.9572 38.1584 100.009 37.7533 99.9881 37.4443C99.9663 37.1156 99.8758 37.0358 99.8316 37.0152C99.7581 36.9811 99.5203 36.9512 98.9569 37.2333C98.8329 37.2954 98.782 37.36 98.7592 37.409C98.7359 37.4593 98.7227 37.5351 98.7486 37.6523C98.804 37.903 99.021 38.2562 99.4328 38.6532C99.5414 38.7579 99.6608 38.863 99.79 38.9673ZM89.3159 41.5454C89.8768 40.8854 90.0939 40.3729 90.1341 40.0115C90.1796 39.6027 90.0045 39.3587 89.7632 39.2264C89.4976 39.0809 89.1371 39.0666 88.8512 39.1957C88.5881 39.3145 88.3824 39.5551 88.3824 39.975C88.3824 40.3813 88.6805 40.9661 89.3159 41.5454ZM78.8997 42.4588C79.36 41.9658 79.6153 41.3098 79.6198 40.6916C79.6244 40.0641 79.3737 39.4972 78.8399 39.1488C78.5415 38.9542 78.3165 38.9122 78.1564 38.9597C78.0042 39.0049 77.777 39.1718 77.5701 39.7245C77.3512 40.3091 77.5468 41.0306 78.1764 41.7682C78.3795 42.0061 78.6226 42.2384 78.8997 42.4588Z" fill="#044C6A"/>
<path d="M121.776 45.3652C119.619 49.6868 113.942 38.1625 111.374 31.8602C117.153 30.7026 127.941 29.3135 124.858 33.0177C121.006 37.648 124.473 39.9632 121.776 45.3652Z" fill="#09648A"/>
<path fill-rule="evenodd" clip-rule="evenodd" d="M174.311 131.139L172 122.65L172.744 122.447L175.056 130.936L174.311 131.139Z" fill="#1577A0"/>
<path fill-rule="evenodd" clip-rule="evenodd" d="M181.991 130.753L184.303 122.264L183.558 122.061L181.246 130.55L181.991 130.753Z" fill="#1577A0"/>
<path fill-rule="evenodd" clip-rule="evenodd" d="M28.5015 109.258C34.0547 105.821 39.6072 102.976 43.029 101.406L43.3851 102.181C39.9924 103.739 34.4712 106.567 28.9507 109.984C23.4221 113.405 17.9308 117.394 14.5674 121.268L13.9229 120.709C17.374 116.734 22.9564 112.69 28.5015 109.258Z" fill="#1577A0"/>
<path fill-rule="evenodd" clip-rule="evenodd" d="M205.723 196.862H28.6729V196.069H205.723V196.862Z" fill="#0F678C"/>
<path fill-rule="evenodd" clip-rule="evenodd" d="M107.748 201.498H5.14319V200.705H107.748V201.498Z" fill="#1577A0"/>
<path fill-rule="evenodd" clip-rule="evenodd" d="M191.066 205.361H63.7743V204.568H191.066V205.361Z" fill="#1577A0"/>
</svg>
